<svg xmlns="http://www.w3.org/2000/svg" xmlns:xlink="http://www.w3.org/1999/xlink" width="28.203" height="24.012" viewBox="0 0 28.203 24.012">
  <defs>
    <clipPath id="clip-path">
      <rect id="長方形_23013" data-name="長方形 23013" width="28.203" height="24.012" fill="none"/>
    </clipPath>
  </defs>
  <g id="img_logo_linkedin_white" clip-path="url(#clip-path)">
    <path id="パス_418" data-name="パス 418" d="M24.226,18.984a1.444,1.444,0,1,1-1.444,1.445,1.444,1.444,0,0,1,1.444-1.445m0-.185a1.63,1.63,0,1,0,1.63,1.63,1.63,1.63,0,0,0-1.63-1.63" transform="translate(2.348 1.953)" fill="#fff"/>
    <path id="パス_419" data-name="パス 419" d="M24.373,20.465a.441.441,0,0,0,.446-.437V20c0-.331-.2-.489-.61-.489h-.662v1.734H23.8v-.756h.3l.008.009.475.747h.266l-.511-.773Zm-.287-.173H23.8v-.586h.366c.189,0,.405.031.405.278,0,.285-.219.308-.484.308" transform="translate(2.446 2.027)" fill="#fff"/>
    <path id="パス_420" data-name="パス 420" d="M20.319,20.318H16.786V14.786c0-1.32-.023-3.018-1.838-3.018-1.84,0-2.122,1.437-2.122,2.922v5.629H9.293V8.939h3.392v1.554h.047a3.719,3.719,0,0,1,3.347-1.838c3.581,0,4.242,2.356,4.242,5.42ZM5.3,7.384A2.05,2.05,0,1,1,7.356,5.333,2.05,2.05,0,0,1,5.3,7.384M7.073,20.318H3.536V8.938H7.073ZM22.081,0H1.76A1.74,1.74,0,0,0,0,1.72V22.125a1.741,1.741,0,0,0,1.76,1.721H22.081a1.745,1.745,0,0,0,1.766-1.721V1.719A1.742,1.742,0,0,0,22.081,0" fill="#fff"/>
  </g>
</svg>
