<svg xmlns="http://www.w3.org/2000/svg" xmlns:xlink="http://www.w3.org/1999/xlink" width="140.765" height="43.325" viewBox="0 0 140.765 43.325">
  <defs>
    <clipPath id="clip-path">
      <rect id="長方形_23019" data-name="長方形 23019" width="140.765" height="43.325" fill="none"/>
    </clipPath>
  </defs>
  <g id="グループ_5228" data-name="グループ 5228" clip-path="url(#clip-path)">
    <path id="パス_446" data-name="パス 446" d="M256.883,47.657V45.651H243.77v2.006h2.593a6.289,6.289,0,0,1-4.034,2.675v2.1a9.746,9.746,0,0,0,4.528-2.026h1.048a7.123,7.123,0,0,1-3.787,2.187v1.821a8.974,8.974,0,0,0,6.315-4.008h.848a8.016,8.016,0,0,1-5.216,4.062v1.821a9.492,9.492,0,0,0,7.475-5.883h.4V52.35c0,1.057-.484,1.624-1.5,1.624h-1.315v2.249H252.6c2.426,0,3.714-1,3.714-3.174V48.417h-7.859c.139-.241.273-.5.4-.76Z" transform="translate(-160.022 -30.146)" fill="#fff"/>
    <path id="パス_447" data-name="パス 447" d="M233.808,32.565a6.464,6.464,0,0,0-1.019-3.574,12.249,12.249,0,0,0,1-5.751h-6.072V41.411h2.323V35.444h1.252c1.8,0,2.517-.679,2.517-2.88m-3.769.265V25.842h1.383a15.6,15.6,0,0,1-.867,3.214,5.258,5.258,0,0,1,.991,2.617c0,.949-.185,1.156-1.15,1.156Z" transform="translate(-150.373 -15.346)" fill="#fff"/>
    <path id="パス_448" data-name="パス 448" d="M259.141,30.1a1.271,1.271,0,0,0,1.27-1.272V23.239H249.266V30.1Zm-7.5-5.021h6.406v.846h-6.406Zm0,2.378h6.406v.333a.529.529,0,0,1-.529.529h-5.877Z" transform="translate(-164.603 -15.346)" fill="#fff"/>
    <path id="パス_449" data-name="パス 449" d="M356.44,25.638h2.333v1.453H356.63V41.42h7.029a1.27,1.27,0,0,0,1.27-1.27V27.091H362.71V25.638h2.424V23.256H356.44Zm5.869,8.369h.879v1.441h-4.782v-.5c1.467-.615,1.97-1.1,1.97-4.291V29.324h.758v3.568a1.152,1.152,0,0,0,1.174,1.115m-3.139-4.683v1c0,1.906-.189,2.121-.764,2.464V29.324Zm4.018,9.336a.529.529,0,0,1-.529.527H358.4V37.678h4.782Zm0-6.97h-.444c-.251,0-.4-.111-.4-.43V29.324h.848Zm-2.054-4.6h-.788V25.638h.788Z" transform="translate(-235.376 -15.357)" fill="#fff"/>
    <path id="パス_450" data-name="パス 450" d="M387.458,27.216h.913v1.767a2.332,2.332,0,0,0,2.384,2.223h2.681V29h-1.99a.9.9,0,0,1-.963-.766V27.216h1.72a.913.913,0,0,0,.939-1.292l-1.232-3.507h-2.237l.756,2.444h-3.672l.892-2.444H385.33l-.892,2.444h-1.182v2.354h1.982a2.983,2.983,0,0,1-2.3,2.46V32c2.593-.709,4.044-1.757,4.522-4.786" transform="translate(-252.872 -14.804)" fill="#fff"/>
    <path id="パス_451" data-name="パス 451" d="M393.638,55.361a10.56,10.56,0,0,1-2.858-.7,8.143,8.143,0,0,0,1.97-3.908V48.911h-4.5a7.14,7.14,0,0,0,.221-.981h-2.333a4.636,4.636,0,0,1-3.2,3.409v2.342a7.714,7.714,0,0,0,2.508-1.017,8.07,8.07,0,0,0,1.248,1.962,10.986,10.986,0,0,1-3.755.957v2.334a13.169,13.169,0,0,0,5.767-1.61,10.973,10.973,0,0,0,4.934,1.463Zm-6.486-4.237h3.073a5.413,5.413,0,0,1-1.556,2.231,5.461,5.461,0,0,1-1.517-2.231" transform="translate(-252.873 -31.651)" fill="#fff"/>
    <path id="パス_452" data-name="パス 452" d="M169.418,32.387a16.8,16.8,0,0,0,10.024,8.767V37.947c-3.572-1.5-7.3-4.422-8.408-8.782h8.408V26.387h-8.625V22.331h-2.87v4.056H159.32v2.778h8.4c-1.146,4.434-5,7.509-8.4,8.838v3.151c4.667-1.662,8.289-4.645,10.08-8.767Z" transform="translate(-105.207 -14.746)" fill="#fff"/>
    <path id="パス_453" data-name="パス 453" d="M293.821,23.239V41.411h15.941a1.97,1.97,0,0,0,1.972-1.972v-16.2Zm15.223,14.647a.747.747,0,0,1-.747.746H296.512V33.651h12.532Zm0-7.011H296.512V26.017h12.532Z" transform="translate(-194.025 -15.346)" fill="#fff"/>
    <path id="パス_454" data-name="パス 454" d="M160.921,89.288h-1.6v-.876h4.328v.876h-1.6v4.693h-1.125Z" transform="translate(-105.207 -58.383)" fill="#fff"/>
    <path id="パス_455" data-name="パス 455" d="M174.993,87.188h1.075v2.434h.016a1.533,1.533,0,0,1,1.3-.655c.975,0,1.4.685,1.4,1.61v2.6h-1.073v-2.2c0-.5-.008-1.18-.7-1.18-.778,0-.945.836-.945,1.363v2.012h-1.075Z" transform="translate(-115.557 -57.575)" fill="#fff"/>
    <path id="パス_456" data-name="パス 456" d="M190.179,94.171a.932.932,0,0,1,.953-.963c.6,0,.842.446.872.963Zm2.547,1.357a2.8,2.8,0,0,1-1.371.416,1.077,1.077,0,0,1-1.176-1.039h2.852c0-1.435-.434-2.48-1.964-2.48A1.926,1.926,0,0,0,189.15,94.6a1.956,1.956,0,0,0,2.157,2.129,2.854,2.854,0,0,0,1.419-.326Z" transform="translate(-124.906 -61.034)" fill="#fff"/>
    <path id="パス_457" data-name="パス 457" d="M215.6,89.3a3.676,3.676,0,0,0-1.443-.294,1.9,1.9,0,0,0-2.028,2.02,1.838,1.838,0,0,0,1.9,1.984,3.084,3.084,0,0,0,.738-.079v-1.45h-1.188V90.6h2.263v3a7.114,7.114,0,0,1-1.813.287c-1.811,0-3.071-.9-3.071-2.784a2.768,2.768,0,0,1,3.071-2.973,5.568,5.568,0,0,1,1.644.231Z" transform="translate(-139.31 -58.198)" fill="#fff"/>
    <path id="パス_458" data-name="パス 458" d="M229.522,95.441c0-.629.714-.711,1.2-.711h.466a1.352,1.352,0,0,1-.225.846.916.916,0,0,1-.754.368c-.384,0-.682-.153-.682-.5m-.543-1.787a2.169,2.169,0,0,1,1.274-.446c.635,0,.931.223.931.884H230.6a3.3,3.3,0,0,0-1.389.241,1.2,1.2,0,0,0-.706,1.172,1.318,1.318,0,0,0,1.445,1.22,1.47,1.47,0,0,0,1.274-.711h.018a5,5,0,0,0,.048.617h.946c-.024-.321-.04-.607-.048-.918s-.016-.615-.016-1.031V94.16c0-1.212-.519-1.731-1.781-1.731a3.724,3.724,0,0,0-1.435.31Z" transform="translate(-150.887 -61.034)" fill="#fff"/>
    <path id="パス_459" data-name="パス 459" d="M245.452,93.384a2.661,2.661,0,0,0-.963-.175c-.289,0-.631.1-.631.454,0,.655,1.867.239,1.867,1.724,0,.957-.858,1.339-1.734,1.339a4.848,4.848,0,0,1-1.218-.175l.064-.878a2.385,2.385,0,0,0,1.059.273c.273,0,.706-.106.706-.5,0-.806-1.869-.255-1.869-1.74,0-.885.778-1.275,1.618-1.275a4.889,4.889,0,0,1,1.174.153Z" transform="translate(-160.289 -61.034)" fill="#fff"/>
    <path id="パス_460" data-name="パス 460" d="M262.665,89.288h.392c.577,0,1.065.225,1.065.872s-.5.828-1.065.828h-.392Zm-1.123,4.693h1.123V91.865h.471c1.2,0,2.157-.471,2.157-1.771,0-1.333-1.112-1.682-2.334-1.682h-1.417Z" transform="translate(-172.71 -58.383)" fill="#fff"/>
    <path id="パス_461" data-name="パス 461" d="M275.364,92.521h.955v.933h.016a1.266,1.266,0,0,1,1.132-1.029,1.182,1.182,0,0,1,.328.032v1.076a1.111,1.111,0,0,0-.48-.086c-.876,0-.876,1.081-.876,1.674V96.63h-1.077Z" transform="translate(-181.837 -61.034)" fill="#fff"/>
    <path id="パス_462" data-name="パス 462" d="M285.516,94.476a1.051,1.051,0,1,1,2.076,0c0,.686-.215,1.419-1.041,1.419s-1.035-.74-1.035-1.419m-1.123.127a2.162,2.162,0,1,0,2.162-2.162,2.161,2.161,0,0,0-2.162,2.162" transform="translate(-187.799 -61.034)" fill="#fff"/>
    <path id="パス_463" data-name="パス 463" d="M299.848,89.659h-.794v-.782h.794V88.3a1.259,1.259,0,0,1,1.315-1.4,3.853,3.853,0,0,1,.786.088l-.089.888a.834.834,0,0,0-.464-.145c-.362,0-.476.31-.476.629v.512h.939v.782h-.939v3.328h-1.073Z" transform="translate(-197.481 -57.389)" fill="#fff"/>
    <path id="パス_464" data-name="パス 464" d="M310.186,94.171a.931.931,0,0,1,.951-.963c.6,0,.844.446.878.963Zm2.55,1.357a2.809,2.809,0,0,1-1.374.416,1.078,1.078,0,0,1-1.176-1.039h2.852c0-1.435-.432-2.48-1.963-2.48a1.925,1.925,0,0,0-1.914,2.169,1.954,1.954,0,0,0,2.153,2.129,2.862,2.862,0,0,0,1.421-.326Z" transform="translate(-204.155 -61.034)" fill="#fff"/>
    <path id="パス_465" data-name="パス 465" d="M326.048,93.384a2.658,2.658,0,0,0-.961-.175c-.291,0-.635.1-.635.454,0,.655,1.869.239,1.869,1.724,0,.957-.858,1.339-1.732,1.339a4.851,4.851,0,0,1-1.22-.175l.064-.878a2.387,2.387,0,0,0,1.061.273c.273,0,.7-.106.7-.5,0-.806-1.869-.255-1.869-1.74,0-.885.776-1.275,1.62-1.275a4.886,4.886,0,0,1,1.172.153Z" transform="translate(-213.511 -61.034)" fill="#fff"/>
    <path id="パス_466" data-name="パス 466" d="M337.4,93.384a2.639,2.639,0,0,0-.959-.175c-.289,0-.637.1-.637.454,0,.655,1.869.239,1.869,1.724,0,.957-.858,1.339-1.732,1.339a4.849,4.849,0,0,1-1.218-.175l.062-.878a2.4,2.4,0,0,0,1.061.273c.271,0,.7-.106.7-.5,0-.806-1.867-.255-1.867-1.74,0-.885.778-1.275,1.618-1.275a4.887,4.887,0,0,1,1.172.153Z" transform="translate(-221.01 -61.034)" fill="#fff"/>
    <path id="パス_467" data-name="パス 467" d="M347.118,89.264H348.2v4.11h-1.077Zm0-1.771H348.2v1.021h-1.077Z" transform="translate(-229.22 -57.776)" fill="#fff"/>
    <path id="パス_468" data-name="パス 468" d="M354.6,94.476a1.051,1.051,0,1,1,2.076,0c0,.686-.217,1.419-1.041,1.419s-1.035-.74-1.035-1.419m-1.125.127a2.161,2.161,0,1,0,2.161-2.161A2.16,2.16,0,0,0,353.47,94.6" transform="translate(-233.414 -61.034)" fill="#fff"/>
    <path id="パス_469" data-name="パス 469" d="M369.308,92.521h1.019v.559h.016a1.546,1.546,0,0,1,1.355-.655c.979,0,1.4.684,1.4,1.61v2.6h-1.075v-2.2c0-.5-.008-1.18-.7-1.18-.776,0-.945.836-.945,1.363V96.63h-1.075Z" transform="translate(-243.873 -61.034)" fill="#fff"/>
    <path id="パス_470" data-name="パス 470" d="M384.741,95.441c0-.629.713-.711,1.194-.711h.466a1.364,1.364,0,0,1-.223.846.926.926,0,0,1-.756.368c-.384,0-.681-.153-.681-.5m-.545-1.787a2.17,2.17,0,0,1,1.276-.446c.631,0,.929.223.929.884h-.6a3.294,3.294,0,0,0-1.387.241,1.2,1.2,0,0,0-.7,1.172,1.314,1.314,0,0,0,1.441,1.22,1.479,1.479,0,0,0,1.278-.711h.014a5.005,5.005,0,0,0,.048.617h.946c-.024-.321-.04-.607-.046-.918s-.016-.615-.016-1.031V94.16c0-1.212-.521-1.731-1.781-1.731a3.708,3.708,0,0,0-1.435.31Z" transform="translate(-253.387 -61.034)" fill="#fff"/>
    <rect id="長方形_23018" data-name="長方形 23018" width="1.075" height="5.984" transform="translate(135.449 29.613)" fill="#fff"/>
    <path id="パス_471" data-name="パス 471" d="M408.337,93.384a2.676,2.676,0,0,0-.963-.175c-.288,0-.635.1-.635.454,0,.655,1.871.239,1.871,1.724,0,.957-.86,1.339-1.731,1.339a4.827,4.827,0,0,1-1.22-.175l.066-.878a2.37,2.37,0,0,0,1.057.273c.273,0,.7-.106.7-.5,0-.806-1.867-.255-1.867-1.74,0-.885.776-1.275,1.618-1.275a4.871,4.871,0,0,1,1.172.153Z" transform="translate(-267.85 -61.034)" fill="#fff"/>
    <path id="パス_472" data-name="パス 472" d="M65.884,117.041a18.858,18.858,0,0,1-2.951,3.568h.288A21.566,21.566,0,0,0,74.9,117.194a27.768,27.768,0,0,1-4.472.319,22.286,22.286,0,0,1-4.548-.472" transform="translate(-41.558 -77.288)" fill="#fff"/>
    <path id="パス_473" data-name="パス 473" d="M108.821,27.271A21.657,21.657,0,0,0,99.334,10.9c-.042.489-.068.982-.068,1.481a16.375,16.375,0,0,0,9.554,14.886" transform="translate(-65.55 -7.2)" fill="#fff"/>
    <path id="パス_474" data-name="パス 474" d="M15.489,11.59l1.045.006c.312,0,.616.007.918.022a21.671,21.671,0,0,1,4.7-6.866,21.758,21.758,0,0,0-8.981,6.874c.671-.05,1.451-.042,2.32-.036" transform="translate(-8.696 -3.138)" fill="#fff"/>
    <path id="パス_475" data-name="パス 475" d="M5.62,31.976a18.788,18.788,0,0,0,4.98,2.749A23.321,23.321,0,0,1,11.9,29c-.171,0-.342-.013-.515-.013a18.475,18.475,0,0,0-4.526.56,21.44,21.44,0,0,0-1.279,2.4Z" transform="translate(-3.685 -19.142)" fill="#fff"/>
    <path id="パス_476" data-name="パス 476" d="M9.329,56.528A22.793,22.793,0,0,1,6.8,46.012c0-.29.013-.576.024-.863a22.085,22.085,0,0,1-5.6-2.52,21.642,21.642,0,0,0,7.982,24.9,19.148,19.148,0,0,1,.12-11" transform="translate(0 -28.151)" fill="#fff"/>
    <path id="パス_477" data-name="パス 477" d="M41.479,14.637a18.846,18.846,0,0,0,9.64-12.1l.014-.052A21.591,21.591,0,0,0,36.1.581a21.237,21.237,0,0,0-6.742,7.991,18.593,18.593,0,0,1,12.126,6.066" transform="translate(-19.383)" fill="#fff"/>
    <path id="パス_478" data-name="パス 478" d="M42.145,98.01A21.813,21.813,0,0,1,29.91,88.893a17.8,17.8,0,0,0,1.148,10.412l.108.253a21.582,21.582,0,0,0,7.2,2.273,18.654,18.654,0,0,0,3.777-3.821" transform="translate(-19.542 -58.701)" fill="#fff"/>
    <path id="パス_479" data-name="パス 479" d="M23.154,50.531c0,.173-.012.344-.012.516a21.052,21.052,0,0,0,2.036,9.035,19.177,19.177,0,0,1,8.914-9.72,22.118,22.118,0,0,1-10.938.169" transform="translate(-15.282 -33.257)" fill="#fff"/>
    <path id="パス_480" data-name="パス 480" d="M43.2,49.773a17.63,17.63,0,0,0-6.971,4.188,17.164,17.164,0,0,0-4.478,7.43,21.193,21.193,0,0,0,12.586,9.657A18.493,18.493,0,0,0,43.2,49.773" transform="translate(-20.969 -32.868)" fill="#fff"/>
    <path id="パス_481" data-name="パス 481" d="M89.044,55.586l-.144-.233A17.561,17.561,0,0,0,73.746,47.18a18.558,18.558,0,0,0-4.239.489,20.561,20.561,0,0,1,3.855,11.8,21.194,21.194,0,0,1-2.448,10.256,21.17,21.17,0,0,0,11.192-.87,21.6,21.6,0,0,0,6.938-13.27" transform="translate(-45.899 -31.155)" fill="#fff"/>
    <path id="パス_482" data-name="パス 482" d="M36.22,34.559a18.435,18.435,0,0,0-11.395-5.32A20.97,20.97,0,0,0,23.4,35.227a18.807,18.807,0,0,0,12.82-.669" transform="translate(-15.452 -19.308)" fill="#fff"/>
  </g>
</svg>
