<svg xmlns="http://www.w3.org/2000/svg" width="28.203" height="24.012"><defs><clipPath id="a"><path data-name="長方形 23013" fill="none" d="M0 0h28.203v24.012H0z"/></clipPath></defs><g clip-path="url(#a)" fill="#fff"><path data-name="パス 418" d="M26.574 20.937a1.444 1.444 0 11-1.444 1.445 1.444 1.444 0 011.444-1.445m0-.185a1.63 1.63 0 101.63 1.63 1.63 1.63 0 00-1.63-1.63"/><path data-name="パス 419" d="M26.819 22.492a.441.441 0 00.446-.437v-.028c0-.331-.2-.489-.61-.489h-.662v1.734h.253v-.756h.3l.008.009.475.747h.266l-.511-.773zm-.287-.173h-.286v-.586h.366c.189 0 .405.031.405.278 0 .285-.219.308-.484.308"/><path data-name="パス 420" d="M20.319 20.318h-3.533v-5.532c0-1.32-.023-3.018-1.838-3.018-1.84 0-2.122 1.437-2.122 2.922v5.629H9.293V8.939h3.392v1.554h.047a3.719 3.719 0 013.347-1.838c3.581 0 4.242 2.356 4.242 5.42zM5.3 7.384a2.05 2.05 0 112.056-2.051A2.05 2.05 0 015.3 7.384m1.773 12.934H3.536V8.938h3.537zM22.081 0H1.76A1.74 1.74 0 000 1.72v20.405a1.741 1.741 0 001.76 1.721h20.321a1.745 1.745 0 001.766-1.721V1.719A1.742 1.742 0 0022.081 0"/></g></svg>