<svg xmlns="http://www.w3.org/2000/svg" width="140.765" height="43.325"><defs><clipPath id="a"><path data-name="長方形 23019" fill="none" d="M0 0h140.765v43.325H0z"/></clipPath></defs><g data-name="グループ 5228" clip-path="url(#a)" fill="#fff"><path data-name="パス 446" d="M96.861 17.511v-2.006H83.748v2.006h2.593a6.289 6.289 0 01-4.034 2.675v2.1a9.746 9.746 0 004.528-2.026h1.048a7.123 7.123 0 01-3.787 2.187v1.821a8.974 8.974 0 006.315-4.008h.848a8.016 8.016 0 01-5.216 4.062v1.821a9.492 9.492 0 007.475-5.883h.4v1.944c0 1.057-.484 1.624-1.5 1.624h-1.315v2.249h1.475c2.426 0 3.714-1 3.714-3.174v-4.632h-7.859c.139-.241.273-.5.4-.76z"/><path data-name="パス 447" d="M83.435 17.219a6.464 6.464 0 00-1.019-3.574 12.249 12.249 0 001-5.751h-6.072v18.171h2.323v-5.967h1.252c1.8 0 2.517-.679 2.517-2.88m-3.769.265v-6.987h1.383a15.6 15.6 0 01-.867 3.214 5.258 5.258 0 01.991 2.617c0 .949-.185 1.156-1.15 1.156z"/><path data-name="パス 448" d="M94.538 14.754a1.271 1.271 0 001.27-1.272V7.893H84.663v6.861zm-7.5-5.021h6.406v.846h-6.406zm0 2.378h6.406v.333a.529.529 0 01-.529.529h-5.877z"/><path data-name="パス 449" d="M121.064 10.281h2.333v1.453h-2.143v14.329h7.029a1.27 1.27 0 001.27-1.27V11.734h-2.219v-1.453h2.424V7.899h-8.694zm5.869 8.369h.879v1.441h-4.782v-.5c1.467-.615 1.97-1.1 1.97-4.291v-1.333h.758v3.568a1.152 1.152 0 001.174 1.115m-3.139-4.683v1c0 1.906-.189 2.121-.764 2.464v-3.464zm4.018 9.336a.529.529 0 01-.529.527h-4.258v-1.509h4.782zm0-6.97h-.444c-.251 0-.4-.111-.4-.43v-1.936h.848zm-2.054-4.6h-.788v-1.452h.788z"/><path data-name="パス 450" d="M134.586 12.412h.913v1.767a2.332 2.332 0 002.384 2.223h2.681v-2.206h-1.99a.9.9 0 01-.963-.766v-1.018h1.72a.913.913 0 00.939-1.292l-1.232-3.507h-2.237l.756 2.444h-3.672l.892-2.444h-2.319l-.892 2.444h-1.182v2.354h1.982a2.983 2.983 0 01-2.3 2.46v2.325c2.593-.709 4.044-1.757 4.522-4.786"/><path data-name="パス 451" d="M140.765 23.71a10.56 10.56 0 01-2.858-.7 8.143 8.143 0 001.97-3.908V17.26h-4.5a7.14 7.14 0 00.221-.981h-2.333a4.636 4.636 0 01-3.2 3.409v2.342a7.714 7.714 0 002.508-1.017 8.07 8.07 0 001.248 1.962 10.986 10.986 0 01-3.755.957v2.334a13.169 13.169 0 005.767-1.61 10.973 10.973 0 004.934 1.463zm-6.486-4.237h3.073a5.413 5.413 0 01-1.556 2.231 5.461 5.461 0 01-1.517-2.231"/><path data-name="パス 452" d="M64.211 17.641a16.8 16.8 0 0010.024 8.767v-3.207c-3.572-1.5-7.3-4.422-8.408-8.782h8.408v-2.778H65.61V7.585h-2.87v4.056h-8.627v2.778h8.4c-1.146 4.434-5 7.509-8.4 8.838v3.151c4.667-1.662 8.289-4.645 10.08-8.767z"/><path data-name="パス 453" d="M99.796 7.893v18.172h15.941a1.97 1.97 0 001.972-1.972v-16.2zm15.223 14.647a.747.747 0 01-.747.746h-11.785v-4.981h12.532zm0-7.011h-12.532v-4.858h12.532z"/><path data-name="パス 454" d="M55.714 30.905h-1.6v-.876h4.328v.876h-1.6v4.693h-1.125z"/><path data-name="パス 455" d="M59.436 29.613h1.075v2.434h.016a1.533 1.533 0 011.3-.655c.975 0 1.4.685 1.4 1.61v2.6h-1.073v-2.2c0-.5-.008-1.18-.7-1.18-.778 0-.945.836-.945 1.363v2.012h-1.075z"/><path data-name="パス 456" d="M65.273 33.137a.932.932 0 01.953-.963c.6 0 .842.446.872.963zm2.547 1.357a2.8 2.8 0 01-1.371.416 1.077 1.077 0 01-1.176-1.039h2.852c0-1.435-.434-2.48-1.964-2.48a1.926 1.926 0 00-1.917 2.175 1.956 1.956 0 002.157 2.129 2.854 2.854 0 001.419-.326z"/><path data-name="パス 457" d="M76.29 31.102a3.676 3.676 0 00-1.443-.294 1.9 1.9 0 00-2.028 2.02 1.838 1.838 0 001.9 1.984 3.084 3.084 0 00.738-.079v-1.45h-1.188v-.881h2.263v3a7.114 7.114 0 01-1.813.287c-1.811 0-3.071-.9-3.071-2.784a2.768 2.768 0 013.071-2.973 5.568 5.568 0 011.644.231z"/><path data-name="パス 458" d="M78.635 34.407c0-.629.714-.711 1.2-.711h.466a1.352 1.352 0 01-.225.846.916.916 0 01-.754.368c-.384 0-.682-.153-.682-.5m-.543-1.787a2.169 2.169 0 011.274-.446c.635 0 .931.223.931.884h-.589a3.3 3.3 0 00-1.389.241 1.2 1.2 0 00-.706 1.172 1.318 1.318 0 001.445 1.22 1.47 1.47 0 001.274-.711h.018a5 5 0 00.048.617h.946c-.024-.321-.04-.607-.048-.918s-.016-.615-.016-1.031v-.525c0-1.212-.519-1.731-1.781-1.731a3.724 3.724 0 00-1.435.31z"/><path data-name="パス 459" d="M85.163 32.35a2.661 2.661 0 00-.963-.175c-.289 0-.631.1-.631.454 0 .655 1.867.239 1.867 1.724 0 .957-.858 1.339-1.734 1.339a4.848 4.848 0 01-1.218-.175l.064-.878a2.385 2.385 0 001.059.273c.273 0 .706-.106.706-.5 0-.806-1.869-.255-1.869-1.74 0-.885.778-1.275 1.618-1.275a4.889 4.889 0 011.174.153z"/><path data-name="パス 460" d="M89.955 30.905h.392c.577 0 1.065.225 1.065.872s-.5.828-1.065.828h-.392zm-1.123 4.693h1.123v-2.116h.471c1.2 0 2.157-.471 2.157-1.771 0-1.333-1.112-1.682-2.334-1.682h-1.417z"/><path data-name="パス 461" d="M93.527 31.487h.955v.933h.016a1.266 1.266 0 011.132-1.029 1.182 1.182 0 01.328.032v1.076a1.111 1.111 0 00-.48-.086c-.876 0-.876 1.081-.876 1.674v1.509h-1.077z"/><path data-name="パス 462" d="M97.717 33.442a1.051 1.051 0 112.076 0c0 .686-.215 1.419-1.041 1.419s-1.035-.74-1.035-1.419m-1.123.127a2.162 2.162 0 102.162-2.162 2.161 2.161 0 00-2.162 2.162"/><path data-name="パス 463" d="M102.367 32.27h-.794v-.782h.794v-.577a1.259 1.259 0 011.315-1.4 3.853 3.853 0 01.786.088l-.089.888a.834.834 0 00-.464-.145c-.362 0-.476.31-.476.629v.512h.939v.782h-.939v3.328h-1.073z"/><path data-name="パス 464" d="M106.031 33.137a.931.931 0 01.951-.963c.6 0 .844.446.878.963zm2.55 1.357a2.809 2.809 0 01-1.374.416 1.078 1.078 0 01-1.176-1.039h2.852c0-1.435-.432-2.48-1.963-2.48a1.925 1.925 0 00-1.914 2.169 1.954 1.954 0 002.153 2.129 2.862 2.862 0 001.421-.326z"/><path data-name="パス 465" d="M112.537 32.35a2.658 2.658 0 00-.961-.175c-.291 0-.635.1-.635.454 0 .655 1.869.239 1.869 1.724 0 .957-.858 1.339-1.732 1.339a4.851 4.851 0 01-1.22-.175l.064-.878a2.387 2.387 0 001.061.273c.273 0 .7-.106.7-.5 0-.806-1.869-.255-1.869-1.74 0-.885.776-1.275 1.62-1.275a4.886 4.886 0 011.172.153z"/><path data-name="パス 466" d="M116.39 32.35a2.639 2.639 0 00-.959-.175c-.289 0-.637.1-.637.454 0 .655 1.869.239 1.869 1.724 0 .957-.858 1.339-1.732 1.339a4.849 4.849 0 01-1.218-.175l.062-.878a2.4 2.4 0 001.061.273c.271 0 .7-.106.7-.5 0-.806-1.867-.255-1.867-1.74 0-.885.778-1.275 1.618-1.275a4.887 4.887 0 011.172.153z"/><path data-name="パス 467" d="M117.898 31.488h1.082v4.11h-1.077zm0-1.771h1.082v1.021h-1.077z"/><path data-name="パス 468" d="M121.186 33.442a1.051 1.051 0 112.076 0c0 .686-.217 1.419-1.041 1.419s-1.035-.74-1.035-1.419m-1.125.127a2.161 2.161 0 102.161-2.161 2.16 2.16 0 00-2.166 2.158"/><path data-name="パス 469" d="M125.435 31.487h1.019v.559h.016a1.546 1.546 0 011.355-.655c.979 0 1.4.684 1.4 1.61v2.6h-1.075v-2.2c0-.5-.008-1.18-.7-1.18-.776 0-.945.836-.945 1.363v2.012h-1.075z"/><path data-name="パス 470" d="M131.354 34.407c0-.629.713-.711 1.194-.711h.466a1.364 1.364 0 01-.223.846.926.926 0 01-.756.368c-.384 0-.681-.153-.681-.5m-.545-1.787a2.17 2.17 0 011.276-.446c.631 0 .929.223.929.884h-.6a3.294 3.294 0 00-1.387.241 1.2 1.2 0 00-.7 1.172 1.314 1.314 0 001.441 1.22 1.479 1.479 0 001.278-.711h.014a5.005 5.005 0 00.048.617h.946c-.024-.321-.04-.607-.046-.918s-.016-.615-.016-1.031v-.525c0-1.212-.521-1.731-1.781-1.731a3.708 3.708 0 00-1.435.31z"/><path data-name="長方形 23018" d="M135.449 29.613h1.075v5.984h-1.075z"/><path data-name="パス 471" d="M140.487 32.35a2.676 2.676 0 00-.963-.175c-.288 0-.635.1-.635.454 0 .655 1.871.239 1.871 1.724 0 .957-.86 1.339-1.731 1.339a4.827 4.827 0 01-1.22-.175l.066-.878a2.37 2.37 0 001.057.273c.273 0 .7-.106.7-.5 0-.806-1.867-.255-1.867-1.74 0-.885.776-1.275 1.618-1.275a4.871 4.871 0 011.172.153z"/><path data-name="パス 472" d="M24.326 39.753a18.858 18.858 0 01-2.951 3.568h.288a21.566 21.566 0 0011.679-3.415 27.768 27.768 0 01-4.472.319 22.286 22.286 0 01-4.548-.472"/><path data-name="パス 473" d="M43.271 20.071A21.657 21.657 0 0033.784 3.7c-.042.489-.068.982-.068 1.481a16.375 16.375 0 009.554 14.886"/><path data-name="パス 474" d="M6.793 8.452l1.045.006c.312 0 .616.007.918.022a21.671 21.671 0 014.7-6.866 21.758 21.758 0 00-8.981 6.874c.671-.05 1.451-.042 2.32-.036"/><path data-name="パス 475" d="M1.935 12.834a18.788 18.788 0 004.98 2.749 23.321 23.321 0 011.3-5.725c-.171 0-.342-.013-.515-.013a18.475 18.475 0 00-4.526.56 21.44 21.44 0 00-1.279 2.4z"/><path data-name="パス 476" d="M9.329 28.377A22.793 22.793 0 016.8 17.861c0-.29.013-.576.024-.863a22.085 22.085 0 01-5.6-2.52 21.642 21.642 0 007.982 24.9 19.148 19.148 0 01.12-11"/><path data-name="パス 477" d="M22.096 14.637a18.846 18.846 0 009.64-12.1l.014-.052A21.591 21.591 0 0016.717.581a21.237 21.237 0 00-6.742 7.991 18.593 18.593 0 0112.126 6.066"/><path data-name="パス 478" d="M22.603 39.309a21.813 21.813 0 01-12.235-9.117 17.8 17.8 0 001.148 10.412l.108.253a21.582 21.582 0 007.2 2.273 18.654 18.654 0 003.777-3.821"/><path data-name="パス 479" d="M7.872 17.274c0 .173-.012.344-.012.516a21.052 21.052 0 002.036 9.035 19.177 19.177 0 018.914-9.72 22.118 22.118 0 01-10.938.169"/><path data-name="パス 480" d="M22.231 16.905a17.63 17.63 0 00-6.971 4.188 17.164 17.164 0 00-4.478 7.43 21.193 21.193 0 0012.586 9.657 18.493 18.493 0 00-1.137-21.275"/><path data-name="パス 481" d="M43.145 24.431l-.144-.233a17.561 17.561 0 00-15.154-8.173 18.558 18.558 0 00-4.239.489 20.561 20.561 0 013.855 11.8 21.194 21.194 0 01-2.448 10.256 21.17 21.17 0 0011.192-.87 21.6 21.6 0 006.938-13.27"/><path data-name="パス 482" d="M20.768 15.251a18.435 18.435 0 00-11.395-5.32 20.97 20.97 0 00-1.425 5.988 18.807 18.807 0 0012.82-.669"/></g></svg>